# xmcd
#
# Track frame offsets: 
#        150
#        20270
#        39125
#        67535
#        95775
#
# Disc length: 1659 seconds
#
# Revision: 0
# Processed by: cddbd v1.5.2PL0 Copyright (c) Steve Scherf et al.
# Submitted via: ExactAudioCopy v0.99pb4
#
DISCID=2d067905
DTITLE=Janet Jackson - That's The Way Love Goes (Promo Single)
DYEAR=1993
DGENRE=R&B
TTITLE0=That's The Way Love Goes (LP Version)
TTITLE1=That's The Way Love Goes (CJ R&B 7" Mix)
TTITLE2=That's The Way Love Goes (CJ R&B 12" Mix)
TTITLE3=That's The Way Love Goes (CJ FXTC Instrumental)
TTITLE4=That's The Way Love Goes (Macapella)
EXTD=
EXTT0=
EXTT1=
EXTT2=
EXTT3=
EXTT4=
PLAYORDER=
